# xmcd
#
# Track frame offsets:
#	150
#	13425
#	27932
#	40285
#	53250
#	64535
#	77740
#	91652
#	103297
#	113402
#	127990
#	142467
#
# Disc length: 2073 seconds
#
# Revision: 0
# Processed by: cddbd v1.5.1PL2 Copyright (c) Steve Scherf et al.
# Submitted via: EasyCDDAExtractor 9.0.2.1
#
DISCID=9908170c
DTITLE=Beth Carvalho - Sentimento Brasileiro
DYEAR=1900
DGENRE=
TTITLE0=A Chuva Cai
TTITLE1=Rochedo
TTITLE2=Você Pensa Que Eu Me Apaixonei
TTITLE3=Quando O Povo Entra Na Dança
TTITLE4=Silêncio
TTITLE5=Sentimento Do Povo
TTITLE6=Chorando Pela Natureza
TTITLE7=Herança
TTITLE8=Voltei
TTITLE9=O Sonho Não Acabou
TTITLE10=Consideração
TTITLE11=Canção De Esperar Neném
EXTD=
EXTT0=
EXTT1=
EXTT2=
EXTT3=
EXTT4=
EXTT5=
EXTT6=
EXTT7=
EXTT8=
EXTT9=
EXTT10=
EXTT11=
PLAYORDER=
